PathFileType	4	(X/Y/Z)	C:\Users\Basilio\Documents\Thesis Gigler\squatting_fais\c3dfiles\019\SJ_pre3\markers_experimental.trc
DataRate	CameraRate	NumFrames	NumMarkers	Units	OrigDataRate	OrigDataStartFrame	OrigNumFrames
200.000000	200.000000	4	59	mm	200.000000	976	1302
Frame#	Time	FHD			RBHD			C7			T10			CLAV			LSHO			LUUPA			LMUPA			LDUPA			LLEP			LMEP			LRAD			LUL			LRFIN			RSHO			RUPA1			RMUPA			RDUPA			RLEP			RMEP			RRAD			RUL			RUFIN			LASI			RASI			USACR			LSACR			RSACR			LTHI1			LTHI2			LTHI3			LTHI4			LLFC			LTIB1			LTIB2			LTIB3			LTIB4			LLMAL			LMMAL			LHEE			LMT1			LMT2			LMT5			RTHI			RTHI2			RTHI3			RTHI4			RLFC			RTIB1			RTIB2			RTIB3			RTIB4			RLMAL			RMMAL			RHEE			RMT1			RMT2			RMT5			LBHD			
		X1	Y1	Z1	X2	Y2	Z2	X3	Y3	Z3	X4	Y4	Z4	X5	Y5	Z5	X6	Y6	Z6	X7	Y7	Z7	X8	Y8	Z8	X9	Y9	Z9	X10	Y10	Z10	X11	Y11	Z11	X12	Y12	Z12	X13	Y13	Z13	X14	Y14	Z14	X15	Y15	Z15	X16	Y16	Z16	X17	Y17	Z17	X18	Y18	Z18	X19	Y19	Z19	X20	Y20	Z20	X21	Y21	Z21	X22	Y22	Z22	X23	Y23	Z23	X24	Y24	Z24	X25	Y25	Z25	X26	Y26	Z26	X27	Y27	Z27	X28	Y28	Z28	X29	Y29	Z29	X30	Y30	Z30	X31	Y31	Z31	X32	Y32	Z32	X33	Y33	Z33	X34	Y34	Z34	X35	Y35	Z35	X36	Y36	Z36	X37	Y37	Z37	X38	Y38	Z38	X39	Y39	Z39	X40	Y40	Z40	X41	Y41	Z41	X42	Y42	Z42	X43	Y43	Z43	X44	Y44	Z44	X45	Y45	Z45	X46	Y46	Z46	X47	Y47	Z47	X48	Y48	Z48	X49	Y49	Z49	X50	Y50	Z50	X51	Y51	Z51	X52	Y52	Z52	X53	Y53	Z53	X54	Y54	Z54	X55	Y55	Z55	X56	Y56	Z56	X57	Y57	Z57	X58	Y58	Z58	X59	Y59	Z59	

977	4.88	-16.89802169799805	1604.858032226563	-903.460632324219	-157.1295013427735	1598.27587890625	-894.4531860351565	-229.1225585937501	1440.029663085938	-955.0775146484377	-345.2438354492188	1174.033935546875	-941.3793945312502	-104.045654296875	1363.066284179688	-965.0396728515627	-173.932601928711	1418.495361328125	-1111.10595703125	-236.0776367187501	1289.046020507813	-1213.95556640625	-238.5819549560547	1245.252807617188	-1190.799194335938	-269.2623901367188	1236.907470703125	-1241.130981445313	-326.9794006347657	1199.319702148438	-1290.849975585938	-392.2556457519532	1209.514892578125	-1261.076171875	-350.0605773925782	981.5581054687502	-1157.6064453125	-336.3255615234376	955.9676513671877	-1218.295532226563	-308.4158630371094	949.546081542969	-1125.381469726563	-151.476547241211	1418.455200195313	-821.631286621094	-256.9031982421876	1329.614501953125	-680.9447021484376	-236.3059234619141	1285.584838867188	-677.3718872070314	-282.5549011230469	1278.427368164063	-639.9102172851564	-308.9553833007813	1208.04638671875	-606.4343872070314	-367.7036132812501	1224.589477539063	-631.5220336914064	-333.1018066406251	987.649841308594	-734.3129882812501	-314.3626708984376	960.4970703125002	-679.5599975585939	-287.8254089355469	953.390563964844	-768.7133789062502	-286.7488708496094	938.1448974609377	-1052.980712890625	-266.5939636230469	937.1651611328127	-855.2658691406252	-399.6195373535157	1050.052612304688	-936.517517089844	-419.166229248047	1020.245971679688	-960.807067871094	-411.8516235351564	1022.653015136719	-903.9820556640627	-358.9627380371094	708.1047973632814	-1160.394165039063	-304.1063232421876	645.3983764648439	-1181.447631835938	-259.2774658203126	658.0437622070314	-1170.491821289063	-314.2020263671876	583.9613647460939	-1177.166381835938	-295.7059631347657	488.2100524902345	-1177.762084960938	-255.8506774902344	342.6907043457032	-1176.660888671875	-328.7524719238282	313.3635864257813	-1214.496826171875	-289.0606384277344	302.8153686523438	-1203.597534179688	-293.5304260253907	219.9798736572266	-1178.242065429688	-385.3787536621095	101.1286849975586	-1197.03271484375	-345.8499450683594	97.01795196533206	-1121.3662109375	-426.5537414550782	44.14977264404298	-1137.112060546875	-220.2200012207032	58.12680816650392	-1177.026489257813	-226.4188537597657	58.6354446411133	-1216.774291992188	-277.7521362304688	35.5015983581543	-1260.152099609375	-321.2321166992188	770.925964355469	-728.1779174804689	-270.4429016113282	730.7658691406251	-724.3955688476564	-245.7069396972657	736.8654174804689	-746.2374877929689	-274.9006347656251	648.6750488281251	-705.0691528320314	-271.1506042480469	484.6159667968751	-711.1680908203126	-237.9256439208985	299.6621398925782	-731.9675903320314	-312.7292785644532	232.5730133056641	-684.3201904296876	-270.0748596191407	224.7738189697266	-703.7166748046876	-275.3086242675782	178.1372680664063	-741.9387207031251	-353.5915527343751	101.5396423339844	-704.7617187500001	-315.3430480957032	97.20520782470706	-773.7149658203127	-394.0061035156251	44.92139053344727	-766.4792480468751	-191.4647979736328	53.83560943603517	-712.8024902343751	-202.5608520507813	60.15707397460939	-668.3482055664064	-256.7391357421876	40.87769317626954	-630.2826538085939	-165.6392059326172	1603.9931640625	-1033.951782226563	
978	4.885	-19.19961547851563	1609.52001953125	-903.0087890625002	-159.4901580810547	1603.213623046875	-894.1401367187502	-231.2550506591797	1444.473510742188	-954.763122558594	-345.3503723144532	1177.365844726563	-941.1519165039065	-105.9399566650391	1368.395263671875	-964.7449951171877	-176.4132995605469	1423.673828125	-1110.75244140625	-237.4936523437501	1293.90673828125	-1213.700073242188	-239.6506347656251	1250.183471679688	-1190.759155273438	-270.1995239257813	1241.551635742188	-1241.043701171875	-327.8198242187501	1203.643310546875	-1290.820190429688	-392.963592529297	1213.190795898438	-1260.928833007813	-348.4948425292969	985.3943481445315	-1157.902587890625	-334.5258178710938	960.0178833007815	-1218.629028320313	-306.0226440429688	953.3656005859377	-1125.801147460938	-153.6504516601563	1423.43017578125	-821.4707641601565	-258.3408203125001	1333.527587890625	-680.6220703125001	-237.2846984863282	1289.894653320313	-677.2407226562501	-283.5898742675782	1282.129638671875	-639.7339477539064	-309.5939025878907	1211.178955078125	-606.3648071289064	-368.2276916503907	1227.15771484375	-631.4656372070314	-331.7892761230469	990.7480468750002	-734.2963256835939	-313.0275573730469	963.7601318359377	-679.3718261718751	-286.0823974609376	956.6614379882815	-768.4279785156252	-284.5789184570313	941.5049438476565	-1052.7685546875	-264.3223266601563	940.9631347656252	-855.085632324219	-398.3091430664064	1052.733154296875	-936.3606567382815	-417.5550842285157	1022.806701660156	-960.7229614257815	-410.725799560547	1025.473266601563	-903.9326782226565	-358.4572448730469	710.2076416015626	-1159.759033203125	-304.8262634277344	646.6054077148439	-1180.443969726563	-259.6286621093751	658.6029052734376	-1169.10546875	-316.4472961425782	585.6809692382814	-1176.522705078125	-300.1179809570313	489.744842529297	-1177.261108398438	-258.5183105468751	344.0396118164063	-1175.427001953125	-331.6992797851563	314.0095520019532	-1213.909057617188	-291.2615661621094	303.7167053222657	-1202.653076171875	-294.8784484863282	220.6799468994141	-1177.686767578125	-385.6245727539064	101.33544921875	-1196.986083984375	-346.1555480957032	97.13730621337893	-1121.3427734375	-426.5430297851564	44.10656738281251	-1137.193969726563	-220.2929840087891	58.19058990478517	-1177.022583007813	-226.5258178710938	58.73983764648439	-1216.719970703125	-277.7093200683594	35.52403640747071	-1260.149780273438	-320.0633544921876	772.3653564453127	-728.3086547851564	-271.4440612792969	732.5347290039064	-725.6046142578126	-243.7252197265626	731.1309814453126	-744.5660400390626	-275.4530944824219	649.9244384765626	-705.6279907226564	-274.0817260742188	485.191375732422	-711.9415893554689	-240.2857971191407	300.5457153320313	-732.5280761718751	-314.3308410644532	233.1094665527344	-684.7261962890626	-271.5433349609376	225.2622375488282	-704.0944213867189	-276.1111450195313	178.7418670654297	-742.1240234375001	-353.8906250000001	101.4939422607422	-704.7457275390626	-315.7976379394532	97.52290344238284	-773.981872558594	-394.0352478027345	44.91580200195313	-766.4484252929689	-191.5596618652344	53.85161209106447	-712.8643188476564	-202.5458679199219	60.21820068359376	-668.3601074218751	-256.8131408691407	40.8812370300293	-630.2852783203126	-167.7747192382813	1608.910034179688	-1033.933959960938	
979	4.89	-21.52960586547852	1614.045654296875	-902.960632324219	-161.7134399414063	1607.859497070313	-894.0521240234377	-233.7037658691407	1448.565307617188	-954.4134521484377	-345.3729553222657	1180.372192382813	-940.8872070312502	-107.7529525756836	1373.628784179688	-964.6520996093752	-178.8622283935547	1428.569213867188	-1110.344482421875	-238.9824981689454	1298.652221679688	-1213.663330078125	-240.4981842041016	1254.998046875	-1190.789794921875	-271.1550292968751	1246.103881835938	-1241.124389648438	-328.5110168457032	1207.692626953125	-1290.868041992188	-393.7461242675782	1216.600219726563	-1260.8603515625	-346.8007507324219	989.0069580078127	-1158.158935546875	-332.7966308593751	963.8196411132815	-1218.966674804688	-303.8574523925782	957.1624145507815	-1126.079833984375	-155.9936828613282	1428.079345703125	-821.1221313476565	-259.9143676757813	1337.01708984375	-680.3167724609376	-238.4067535400391	1293.737670898438	-677.0429687500001	-284.6864013671876	1285.390747070313	-639.5468750000001	-310.3082885742188	1213.895385742188	-606.3508300781251	-368.7591552734376	1229.611328125	-631.3858032226564	-330.3835144042969	993.6456298828127	-734.1987304687501	-311.6072082519532	966.8327636718752	-679.1725463867189	-284.4765625000001	959.7094726562502	-768.1248779296877	-282.3451538085938	944.7195434570315	-1052.628173828125	-262.1862487792969	944.3282470703127	-854.9251708984377	-397.0020141601564	1055.186279296875	-936.2586059570315	-415.8678283691407	1025.112548828125	-960.7204589843752	-409.3020935058595	1027.85693359375	-903.942077636719	-358.1992492675782	712.4381103515626	-1159.11767578125	-305.4534912109376	647.7126464843751	-1179.358520507813	-260.1905517578126	659.0915527343751	-1167.856689453125	-317.6809082031251	586.7445068359376	-1174.71337890625	-303.5746765136719	490.9537658691407	-1175.723999023438	-261.0500793457032	345.0811462402344	-1174.214477539063	-333.6085510253907	314.6476440429688	-1212.604248046875	-293.4472656250001	304.7194213867188	-1201.728149414063	-296.3261718750001	221.6640014648438	-1177.042724609375	-386.0005798339845	101.2020874023438	-1196.893188476563	-346.4617614746094	97.25822448730472	-1121.358642578125	-426.5497131347657	44.10947418212891	-1137.191040039063	-220.3218841552735	58.27209091186525	-1176.999755859375	-226.3971557617188	58.81224441528322	-1216.737182617188	-277.6835937500001	35.55437469482423	-1260.07568359375	-318.8540954589844	774.1036376953127	-728.6478881835939	-268.2531433105469	732.8704223632814	-725.3955078125001	-243.5894927978516	738.0449218750001	-747.1323852539064	-276.3132324218751	651.1231689453126	-706.2495727539064	-277.5079040527344	486.2203063964845	-712.9532470703126	-242.4669189453126	301.5165405273438	-732.9954223632814	-315.8938903808594	233.4541168212891	-685.0245361328126	-273.6670227050782	226.0564270019532	-704.4819335937501	-277.0395812988282	179.2678527832032	-742.0614013671876	-354.2176818847657	101.5064086914063	-704.7723388671876	-316.2189636230469	97.66424560546878	-773.9573364257815	-394.0856323242189	44.92267990112305	-766.4486694335939	-191.539047241211	53.89281845092775	-712.8533935546876	-202.6878967285157	60.2776565551758	-668.3718261718751	-256.7512207031251	40.84376907348634	-630.3123168945314	-170.3226318359375	1613.767822265625	-1033.725830078125	
980	4.895	-23.006103515625	1618.129150390625	-902.220397949219	-164.1459655761719	1612.275390625	-893.849548339844	-236.1564178466797	1452.422241210938	-953.9885253906252	-345.6355590820313	1183.259887695313	-940.6485595703127	-109.7550888061524	1378.553344726563	-964.4304809570315	-181.3155670166016	1433.249877929688	-1109.896850585938	-240.3453826904297	1303.21875	-1213.979614257813	-241.7456512451172	1259.332641601563	-1190.768432617188	-272.1026000976563	1250.342895507813	-1241.06884765625	-329.2918395996094	1211.489990234375	-1290.906494140625	-394.3718872070314	1219.874267578125	-1260.776245117188	-344.9316711425782	992.4444580078127	-1158.377075195313	-331.1309814453126	967.5493164062502	-1219.355590820313	-302.3623352050782	960.7252197265627	-1125.665405273438	-158.1966857910157	1432.44970703125	-820.9514160156252	-261.4559936523438	1340.466552734375	-680.0533447265626	-239.6171569824219	1297.0869140625	-676.7448120117189	-285.8120422363282	1288.49267578125	-639.4029541015626	-310.3298339843751	1218.136352539063	-606.4299316406251	-369.5327148437501	1232.289794921875	-631.3646850585939	-328.6938171386719	996.0250244140627	-734.0189208984376	-310.1761474609376	969.6966552734377	-678.8937988281251	-283.0342712402344	962.5090942382815	-767.9645385742189	-280.0762023925782	947.723083496094	-1052.38720703125	-260.1447753906251	947.5291137695315	-854.7750244140627	-395.6731262207032	1057.528442382813	-936.084655761719	-414.324432373047	1027.4326171875	-960.6350097656252	-407.3179016113282	1029.7998046875	-903.8272094726565	-357.7422485351563	714.1859741210939	-1158.462768554688	-306.1473693847657	648.6826171875001	-1178.25146484375	-260.7268371582032	659.4520874023439	-1166.5751953125	-319.4669799804688	587.9777832031251	-1173.3095703125	-306.2506103515626	491.6123046875001	-1174.026489257813	-263.6204833984376	346.1358337402344	-1172.908325195313	-336.3192443847657	315.4555358886719	-1211.486206054688	-295.6304016113282	305.6869201660157	-1200.592163085938	-297.8107910156251	222.4389801025391	-1176.42333984375	-386.255584716797	101.3940887451172	-1196.875610351563	-346.8370056152344	97.35554504394534	-1121.357421875	-426.5863342285157	44.09716796875001	-1137.256591796875	-220.6486511230469	58.0059280395508	-1177.0908203125	-226.5037384033204	58.87105941772462	-1216.64404296875	-277.6827087402344	35.5734977722168	-1260.048461914063	-317.4748840332032	775.743591308594	-729.0275268554689	-270.1389160156251	734.6787109375001	-726.6819458007814	-242.1942749023438	732.5021362304689	-745.7028808593751	-276.2797851562501	651.1220092773439	-706.7117919921876	-280.7571716308594	487.101287841797	-714.0882568359376	-244.8721618652344	302.5411071777344	-733.5367431640626	-318.2186279296876	234.2296752929688	-685.7019653320314	-274.5639038085938	226.7786560058594	-704.5710449218751	-277.9323120117188	179.6507720947266	-742.0747070312501	-354.6348571777344	101.4856719970703	-704.7825927734376	-316.6270141601563	97.77260589599612	-773.9439697265627	-394.1245422363282	44.85748672485352	-766.4127807617189	-191.6250762939453	54.01251602172853	-712.7975463867189	-202.7813720703126	60.36226654052736	-668.3735351562501	-256.7851562500001	40.81886672973634	-630.3298339843751	-172.2980041503907	1618.194091796875	-1033.54736328125	
